/* XPM */
static char *gravstar_xpm[] = {
"16 16 95 2",
"  	c None",
"BA	c #0000EB",
"CA	c #0000D5",
"DA	c #0000B0",
"EA	c #0000AB",
"FA	c #0000A7",
"GA	c #0000AA",
"HA	c #00007B",
"IA	c #000097",
"JA	c #000099",
"KA	c #00007A",
"LA	c #0000D0",
"MA	c #0000C2",
"NA	c #000093",
"OA	c #0000BA",
"PA	c #0000CC",
"QA	c #F8BA0E",
"RA	c #F6C30E",
"SA	c #F4D212",
"TA	c #F5CE12",
"UA	c #000092",
"VA	c #F5CD11",
"WA	c #F9A70A",
"XA	c #F8B80D",
"YA	c #F8B30C",
"ZA	c #F7BC0E",
"aA	c #F7C40F",
"bA	c #0503C8",
"cA	c #0000BC",
"dA	c #0000CD",
"eA	c #0000AE",
"fA	c #0000CE",
"gA	c #0000BF",
"hA	c #1E1CB6",
"iA	c #F8B80E",
"jA	c #F7BC0F",
"kA	c #FC7805",
"lA	c #F9AA0B",
"mA	c #FA8D08",
"nA	c #FB8808",
"oA	c #F99D0A",
"pA	c #F8B20B",
"qA	c #0000CA",
"rA	c #0000DE",
"sA	c #0000C4",
"tA	c #3B1F9E",
"uA	c #FE5A03",
"vA	c #FD4604",
"wA	c #FE1C02",
"xA	c #FE3D04",
"yA	c #FE1A02",
"zA	c #FF1401",
"0A	c #FF1B02",
"1A	c #FE2602",
"2A	c #381EA0",
"3A	c #0000E3",
"4A	c #0000DB",
"5A	c #0000BB",
"6A	c #0000F9",
"7A	c #431B98",
"8A	c #FF0D01",
"9A	c #FF2302",
"+A	c #FE3503",
"/A	c #FF1201",
"AB	c #FF2902",
"BB	c #FF1802",
"CB	c #3F1E9A",
"DB	c #0000FC",
"EB	c #0000FF",
"FB	c #00008D",
"GB	c #0000DC",
"HB	c #241DB1",
"IB	c #FD7206",
"JB	c #F9A70B",
"KB	c #F8B20C",
"LB	c #FC9107",
"MB	c #FB9D0A",
"NB	c #FA9E09",
"OB	c #F8BC0F",
"PB	c #211DB3",
"QB	c #0000F6",
"RB	c #0C0BC3",
"SB	c #F6CC11",
"TB	c #F4D514",
"UB	c #F4D313",
"VB	c #F9B00C",
"WB	c #F8BD0F",
"XB	c #F4D613",
"YB	c #F8B00B",
"ZB	c #0303C9",
"aB	c #0000F5",
"bB	c #000075",
"cB	c #000000",
"dB	c #FFFFFF",
"eB	c #000076",
"                dB              ",
"              dBdB              ",
"              dBcBdB            ",
"            dBcBcBdB            ",
"            dBcBdBcBdB          ",
"          dBcBdBdBcBdB          ",
"          dBcBdBdBdBcBdB        ",
"        dBcBdBdBdBdBcBdB        ",
"        dBcBdBdBdBdBdBcBdB      ",
"      dBcBdBdBdBdBdBdBcBdB      ",
"      dBcBdBdBcBcBcBdBdBcBdB    ",
"    dBcBdBcBcBdBdBdBcBcBcBdB    ",
"    dBcBcBdBdBdBdBdBdBdBcBcBdB  ",
"  dBdBdBdBdBdB      dBdBdBdBdB  ",
"  dBdB                      dBdB",
"                                "
};
